<svg width="110.34119415283203" height="100" xmlns="http://www.w3.org/2000/svg" xlink="http://www.w3.org/1999/xlink">
 <defs>
  <linearGradient y2="0.17064" x2="-0.1911" y1="1.00349" x1="1.20131" id="aa49a0edc-2d39-4780-a671-cadf7f7e2089">
   <stop stop-color="#fad5a5" offset="0"/>
   <stop stop-color="#f06c68" offset="1"/>
  </linearGradient>
  <linearGradient xlink:href="#aa49a0edc-2d39-4780-a671-cadf7f7e2089" y2="101.47" x2="83.81" y1="-21.54" x1="12.79" id="b2e85b305-a48f-4eaa-99fe-a23f5485b66c"/>
 </defs>
 <g>
  <title>Layer 1</title>
  <path id="svg_1" fill="url(#aa49a0edc-2d39-4780-a671-cadf7f7e2089)" d="m108.13,58.27l-19.31,33.45a16.56,16.56 0 0 1 -14.33,8.28l-38.63,0a16.54,16.54 0 0 1 -8.72,-2.49c59.42,0 55.51,-47.51 55.51,-47.51a8.59,8.59 0 0 0 -2.52,-6.09l-18.87,-18.91a8.62,8.62 0 0 0 -12.18,0l-18.86,18.91a8.51,8.51 0 0 0 -2.41,4.69c-0.06,-8.11 2.5,-46 55.56,-46a16.43,16.43 0 0 1 5.43,5.68l19.31,33.45a16.51,16.51 0 0 1 0.02,16.54z"/>
  <path id="svg_2" fill="url(#b2e85b305-a48f-4eaa-99fe-a23f5485b66c)" d="m27.81,48.6a8.61,8.61 0 0 0 2.41,7.49l18.86,18.91a8.62,8.62 0 0 0 12.18,0l18.87,-18.91a8.59,8.59 0 0 0 2.52,-6.09s3.91,47.51 -55.51,47.51a16.48,16.48 0 0 1 -5.61,-5.79l-19.31,-33.45a16.51,16.51 0 0 1 0,-16.54l19.31,-33.45a16.56,16.56 0 0 1 14.33,-8.28l38.63,0a16.54,16.54 0 0 1 8.9,2.6c-53.08,0 -55.64,37.89 -55.58,46z"/>
 </g>
</svg>